<svg xmlns="http://www.w3.org/2000/svg" viewBox="0 0 48 48" fill="none">
  <defs>
    <linearGradient id="bulb_fill" x1="24" y1="4" x2="24" y2="38" gradientUnits="userSpaceOnUse">
      <stop offset="0%" stop-color="#FFE566"/>
      <stop offset="100%" stop-color="#FFB300"/>
    </linearGradient>
    <linearGradient id="bolt_fill" x1="22" y1="8" x2="26" y2="32" gradientUnits="userSpaceOnUse">
      <stop offset="0%" stop-color="#FFFDE7"/>
      <stop offset="100%" stop-color="#E65100"/>
    </linearGradient>
  </defs>
  <!-- Bulb glass -->
  <path d="M24 4C17.4 4 12 9.4 12 16C12 20.4 14.4 24.2 18 26.6V30C18 30.6 18.4 31 19 31H29C29.6 31 30 30.6 30 30V26.6C33.6 24.2 36 20.4 36 16C36 9.4 30.6 4 24 4Z" fill="url(#bulb_fill)"/>
  <!-- Inner glow -->
  <path d="M24 7C19 7 15 11 15 16C15 19.4 16.8 22.4 19.5 24.2V29H28.5V24.2C31.2 22.4 33 19.4 33 16C33 11 29 7 24 7Z" fill="#FFFDE7" fill-opacity="0.45"/>
  <!-- Lightning bolt -->
  <path d="M26.5 8L17 21H23.5L20.5 30L32 17H25.5L26.5 8Z" fill="url(#bolt_fill)" stroke="#E65100" stroke-width="0.6" stroke-linejoin="round"/>
  <!-- Base bands -->
  <rect x="19" y="31" width="10" height="2.5" rx="1.2" fill="#FFB300"/>
  <rect x="19.8" y="34.5" width="8.4" height="2.5" rx="1.2" fill="#FFB300"/>
  <rect x="21" y="38" width="6" height="2.5" rx="1.2" fill="#FFB300"/>
  <!-- Shine -->
  <path d="M15 11C16 8.8 18.2 7.2 20.8 6.5" stroke="white" stroke-width="1.8" stroke-linecap="round" stroke-opacity="0.65"/>
</svg>
