<svg xmlns="http://www.w3.org/2000/svg" viewBox="0 0 48 48" fill="none">
  <defs>
    <linearGradient id="gear_big" x1="2" y1="2" x2="36" y2="36" gradientUnits="userSpaceOnUse">
      <stop offset="0%" stop-color="#B0BEC5"/>
      <stop offset="100%" stop-color="#455A64"/>
    </linearGradient>
    <linearGradient id="gear_sm" x1="26" y1="26" x2="48" y2="48" gradientUnits="userSpaceOnUse">
      <stop offset="0%" stop-color="#90A4AE"/>
      <stop offset="100%" stop-color="#263238"/>
    </linearGradient>
  </defs>
  <!-- Big gear -->
  <path d="M19 2L21.5 7L26.5 6.2L28.5 11.5L33.5 12.5L34 17.5L39 20.2L37.3 25.2L41 29L37.3 32.8L39 37.8L34 40.5L33.5 45.5L28.5 46.5L26.5 51.8L21.5 51L19 56L16.5 51L11.5 51.8L9.5 46.5L4.5 45.5L4 40.5L-1 37.8L0.7 32.8L-3 29L0.7 25.2L-1 20.2L4 17.5L4.5 12.5L9.5 11.5L11.5 6.2L16.5 7Z" fill="url(#gear_big)" transform="translate(5, -2) scale(0.88)"/>
  <!-- Big gear hole -->
  <circle cx="21.7" cy="27" r="8.5" fill="#37474F"/>
  <circle cx="21.7" cy="27" r="5.8" fill="#546E7A"/>
  <circle cx="21.7" cy="27" r="3" fill="#78909C"/>
  <circle cx="20.5" cy="25.8" r="1.3" fill="white" fill-opacity="0.42"/>
  <!-- Small gear -->
  <path d="M36 30L37.8 33L40.8 32.5L42 35.5L45.2 36.5L45.2 39.5L48.2 41.2L47 44.2L49.5 47L47 49.8L48.2 52.8L45.2 54.5L45.2 57.5L42 58.5L40.8 61.5L37.8 61L36 64L34.2 61L31.2 61.5L30 58.5L26.8 57.5L26.8 54.5L23.8 52.8L25 49.8L22.5 47L25 44.2L23.8 41.2L26.8 39.5L26.8 36.5L30 35.5L31.2 32.5L34.2 33Z" fill="url(#gear_sm)" transform="translate(-2, -16) scale(0.82)"/>
  <circle cx="34.2" cy="38.4" r="4.8" fill="#263238"/>
  <circle cx="34.2" cy="38.4" r="3" fill="#455A64"/>
  <circle cx="33.3" cy="37.5" r="1" fill="white" fill-opacity="0.38"/>
</svg>
